<svg id="Layer_2" data-name="Layer 2" xmlns="http://www.w3.org/2000/svg" viewBox="0 0 135.41 120.58"><defs><style>.cls-1{fill:#fae32d;}</style></defs><title>Logo1004</title><rect class="cls-1" width="50.53" height="120.58"/><path d="M1.54,117.42V86.6h5.6q6.05,0,8.79,1.11a12.12,12.12,0,0,1,6.14,5.45,18.35,18.35,0,0,1,2.21,9.24,18.06,18.06,0,0,1-1.75,8.15,12.14,12.14,0,0,1-4.55,5.2q-2.8,1.68-7.84,1.68Zm2.59-2.91H7.25q5.6,0,7.76-.8a9.16,9.16,0,0,0,4.79-4.07,13.88,13.88,0,0,0,1.74-7.19,14.59,14.59,0,0,0-1.89-7.62,9.69,9.69,0,0,0-5.27-4.33A28.06,28.06,0,0,0,6,89.61H4.13Z" transform="translate(0.02 -0.26)"/><path d="M49,94.62v22.79H46.44V113.5a11.43,11.43,0,0,1-3.62,3.37A8.8,8.8,0,0,1,38.42,118a9.21,9.21,0,0,1-7.24-3.51,12.69,12.69,0,0,1-3-8.54,12.44,12.44,0,0,1,3-8.42A9.31,9.31,0,0,1,38.5,94a8.48,8.48,0,0,1,4.45,1.19,10.71,10.71,0,0,1,3.5,3.58V94.62ZM38.71,96.86a7,7,0,0,0-4,1.2,8.39,8.39,0,0,0-2.89,3.38,10.38,10.38,0,0,0,0,9.21,8.57,8.57,0,0,0,2.9,3.42,6.89,6.89,0,0,0,3.91,1.22,7.26,7.26,0,0,0,4-1.21,8,8,0,0,0,2.9-3.29,10.45,10.45,0,0,0,1-4.67,9.8,9.8,0,0,0-2.28-6.61A7.12,7.12,0,0,0,38.71,96.86Z" transform="translate(0.02 -0.26)"/><path d="M55.17,86.6h2.75V98.16L68.71,86.6h3.62l-13,13.83,14,17H69.76L57.93,103.06v14.35H55.17Z" transform="translate(0.02 -0.26)"/><path d="M93.76,109.85l2.17,1.3A13.56,13.56,0,0,1,93.46,115a9.3,9.3,0,0,1-7.09,3,9,9,0,0,1-7.64-3.66,13.87,13.87,0,0,1-.42-16A9.15,9.15,0,0,1,86.23,94a9.45,9.45,0,0,1,8.15,4.42,13.53,13.53,0,0,1,2.2,7.79h-18a10,10,0,0,0,2.22,6.51,6.69,6.69,0,0,0,5.31,2.54,7.92,7.92,0,0,0,5.42-2.21A13.59,13.59,0,0,0,93.76,109.85Zm0-6.14a10.4,10.4,0,0,0-1.5-3.75,7.28,7.28,0,0,0-2.6-2.26,7.14,7.14,0,0,0-3.4-.86A6.82,6.82,0,0,0,81.21,99a10.14,10.14,0,0,0-2.33,4.71Z" transform="translate(0.02 -0.26)"/><path d="M99.12,89.61v-3H113.9v3h-6v27.8h-2.75V89.61Z" transform="translate(0.02 -0.26)"/><path d="M125,94a9.38,9.38,0,0,1,7.65,3.81,13.54,13.54,0,0,1-.16,16.58,9.66,9.66,0,0,1-15,0,13.51,13.51,0,0,1-.16-16.56A9.38,9.38,0,0,1,125,94Zm0,2.87a7,7,0,0,0-5.5,2.7,9.74,9.74,0,0,0-2.3,6.54,10.31,10.31,0,0,0,1,4.61,8.07,8.07,0,0,0,2.83,3.3,7.2,7.2,0,0,0,7.84,0,8.08,8.08,0,0,0,2.84-3.3,10.32,10.32,0,0,0,1-4.61,9.72,9.72,0,0,0-2.31-6.54A7,7,0,0,0,125,96.91Z" transform="translate(0.02 -0.26)"/></svg>