<?xml version="1.0" encoding="UTF-8"?>
<svg width="174px" height="22px" viewBox="0 0 174 22" version="1.1" xmlns="http://www.w3.org/2000/svg" xmlns:xlink="http://www.w3.org/1999/xlink">
    <!-- Generator: Sketch 64 (93537) - https://sketch.com -->
    <title>Group 16</title>
    <desc>Created with Sketch.</desc>
    <g id="Page-1" stroke="none" stroke-width="1" fill="none" fill-rule="evenodd">
        <g id="Group-16">
            <path d="M45.8517775,8.64 C47.1195591,8.64 47.9967483,9.01644068 48.4833716,9.76933333 C48.9699948,10.522226 49.2133028,11.5644378 49.2133028,12.896 L49.2133028,17.6746667 C49.2133028,17.9982238 49.1044545,18.2688878 48.8867546,18.4866667 C48.6690547,18.7044455 48.3937326,18.8133333 48.0607798,18.8133333 C47.7278271,18.8133333 47.4525049,18.7044455 47.234805,18.4866667 C47.0171052,18.2688878 46.9082569,17.9982238 46.9082569,17.6746667 L46.9082569,12.896 C46.9082569,12.2115521 46.7705958,11.6733353 46.4952695,11.2813333 C46.2199432,10.8893314 45.7365287,10.6933333 45.0450115,10.6933333 C44.3278825,10.6933333 43.7676339,10.9017757 43.3642489,11.3186667 C42.9608638,11.7355576 42.7591743,12.2613302 42.7591743,12.896 L42.7591743,17.6746667 C42.7591743,17.9982238 42.650326,18.2688878 42.4326261,18.4866667 C42.2149263,18.7044455 41.9396041,18.8133333 41.6066514,18.8133333 C41.2736986,18.8133333 40.9983765,18.7044455 40.7806766,18.4866667 C40.5629767,18.2688878 40.4541284,17.9982238 40.4541284,17.6746667 L40.4541284,12.896 C40.4541284,12.2115521 40.3164674,11.6733353 40.0411411,11.2813333 C39.7658148,10.8893314 39.2824002,10.6933333 38.590883,10.6933333 C37.8737541,10.6933333 37.3135055,10.9017757 36.9101204,11.3186667 C36.5067354,11.7355576 36.3050459,12.2613302 36.3050459,12.896 L36.3050459,17.6746667 C36.3050459,17.9982238 36.1961976,18.2688878 35.9784977,18.4866667 C35.7607978,18.7044455 35.4854757,18.8133333 35.1525229,18.8133333 C34.8195702,18.8133333 34.544248,18.7044455 34.3265482,18.4866667 C34.1088483,18.2688878 34,17.9982238 34,17.6746667 L34,9.96533333 C34,9.64177616 34.1088483,9.3711122 34.3265482,9.15333333 C34.544248,8.93555447 34.8195702,8.82666667 35.1525229,8.82666667 C35.4854757,8.82666667 35.7607978,8.93555447 35.9784977,9.15333333 C36.1961976,9.3711122 36.3050459,9.64177616 36.3050459,9.96533333 L36.3050459,10.264 C36.6508045,9.81599776 37.0893991,9.43333492 37.6208429,9.116 C38.1522867,8.79866508 38.7445495,8.64 39.3976491,8.64 C41.0111893,8.64 42.0420467,9.3244376 42.4902523,10.6933333 C42.7847874,10.1706641 43.2297849,9.69777989 43.825258,9.27466667 C44.4207312,8.85155344 45.0962309,8.64 45.8517775,8.64 Z M53.8810206,17.6746667 C53.8810206,17.9982238 53.7721723,18.2688878 53.5544725,18.4866667 C53.3367726,18.7044455 53.0614504,18.8133333 52.7284977,18.8133333 C52.395545,18.8133333 52.1202228,18.7044455 51.9025229,18.4866667 C51.6848231,18.2688878 51.5759748,17.9982238 51.5759748,17.6746667 L51.5759748,9.96533333 C51.5759748,9.64177616 51.6848231,9.3711122 51.9025229,9.15333333 C52.1202228,8.93555447 52.395545,8.82666667 52.7284977,8.82666667 C53.0614504,8.82666667 53.3367726,8.93555447 53.5544725,9.15333333 C53.7721723,9.3711122 53.8810206,9.64177616 53.8810206,9.96533333 L53.8810206,17.6746667 Z M52.709289,7.61333333 C52.2738893,7.61333333 51.9665529,7.54488957 51.7872706,7.408 C51.6079884,7.27111043 51.5183486,7.02844619 51.5183486,6.68 L51.5183486,6.32533333 C51.5183486,5.97688715 51.6143912,5.73422291 51.8064794,5.59733333 C51.9985675,5.46044376 52.3059039,5.392 52.7284977,5.392 C53.1767033,5.392 53.4904425,5.46044376 53.6697248,5.59733333 C53.849007,5.73422291 53.9386468,5.97688715 53.9386468,6.32533333 L53.9386468,6.68 C53.9386468,7.04089069 53.8458056,7.28666601 53.6601204,7.41733333 C53.4744352,7.54800065 53.1574946,7.61333333 52.709289,7.61333333 Z M64.5610665,5 C64.8940192,5 65.1693414,5.10577672 65.3870413,5.31733333 C65.6047411,5.52888995 65.7135894,5.80266499 65.7135894,6.13866667 L65.7135894,17.6746667 C65.7135894,17.9982238 65.6047411,18.2688878 65.3870413,18.4866667 C65.1693414,18.7044455 64.8940192,18.8133333 64.5610665,18.8133333 C64.2281138,18.8133333 63.955993,18.7075566 63.7446961,18.496 C63.5333992,18.2844434 63.4213495,18.0168905 63.4085436,17.6933333 C63.0883967,18.054224 62.6562049,18.3622209 62.1119553,18.6173333 C61.5677056,18.8724457 60.9946513,19 60.3927752,19 C59.5091699,19 58.7088147,18.7791133 57.9916858,18.3373333 C57.2745568,17.8955533 56.7079054,17.2826706 56.2917144,16.4986667 C55.8755235,15.7146627 55.6674312,14.8248939 55.6674312,13.8293333 C55.6674312,12.8337728 55.8723221,11.9408928 56.2821101,11.1506667 C56.6918981,10.3604405 57.2521467,9.74444665 57.9628727,9.30266667 C58.6735987,8.86088668 59.4579468,8.64 60.3159404,8.64 C60.9306223,8.64 61.506878,8.7488878 62.0447248,8.96666667 C62.5825715,9.18444553 63.0371732,9.46133165 63.4085436,9.79733333 L63.4085436,6.13866667 C63.4085436,5.81510949 63.5173919,5.54444553 63.7350917,5.32666667 C63.9527916,5.1088878 64.2281138,5 64.5610665,5 Z M60.680906,16.9466667 C61.5132878,16.9466667 62.191989,16.6511141 62.7170298,16.06 C63.2420707,15.4688859 63.5045872,14.7253378 63.5045872,13.8293333 C63.5045872,12.9333289 63.2420707,12.1866697 62.7170298,11.5893333 C62.191989,10.991997 61.5132878,10.6933333 60.680906,10.6933333 C59.86133,10.6933333 59.1890317,10.991997 58.6639908,11.5893333 C58.13895,12.1866697 57.8764335,12.9333289 57.8764335,13.8293333 C57.8764335,14.7253378 58.1357486,15.4688859 58.6543865,16.06 C59.1730244,16.6511141 59.8485241,16.9466667 60.680906,16.9466667 Z M73.5507454,8.64 C73.9349216,8.64 74.2582651,8.74577672 74.5207856,8.95733333 C74.783306,9.16888995 74.9145642,9.41777635 74.9145642,9.704 C74.9145642,10.0897797 74.8121188,10.3791101 74.6072248,10.572 C74.4023308,10.7648899 74.1590228,10.8613333 73.8772936,10.8613333 C73.6852055,10.8613333 73.4675089,10.8177782 73.2241972,10.7306667 C73.1857796,10.7182222 73.0993413,10.6933335 72.9648796,10.656 C72.8304179,10.6186665 72.686354,10.6 72.5326835,10.6 C72.1997308,10.6 71.8795887,10.6995546 71.5722477,10.8986667 C71.2649067,11.0977788 71.0119945,11.3995535 70.8135034,11.804 C70.6150124,12.2084465 70.5157683,12.6906639 70.5157683,13.2506667 L70.5157683,17.6746667 C70.5157683,17.9982238 70.40692,18.2688878 70.1892202,18.4866667 C69.9715203,18.7044455 69.6961981,18.8133333 69.3632454,18.8133333 C69.0302927,18.8133333 68.7549705,18.7044455 68.5372706,18.4866667 C68.3195708,18.2688878 68.2107225,17.9982238 68.2107225,17.6746667 L68.2107225,9.96533333 C68.2107225,9.64177616 68.3195708,9.3711122 68.5372706,9.15333333 C68.7549705,8.93555447 69.0302927,8.82666667 69.3632454,8.82666667 C69.6961981,8.82666667 69.9715203,8.93555447 70.1892202,9.15333333 C70.40692,9.3711122 70.5157683,9.64177616 70.5157683,9.96533333 L70.5157683,10.208 C70.8103035,9.69777523 71.232891,9.30889023 71.7835436,9.04133333 C72.3341962,8.77377644 72.9232576,8.64 73.5507454,8.64 Z M78.7178899,17.6746667 C78.7178899,17.9982238 78.6090416,18.2688878 78.3913417,18.4866667 C78.1736419,18.7044455 77.8983197,18.8133333 77.565367,18.8133333 C77.2324142,18.8133333 76.9570921,18.7044455 76.7393922,18.4866667 C76.5216923,18.2688878 76.412844,17.9982238 76.412844,17.6746667 L76.412844,9.96533333 C76.412844,9.64177616 76.5216923,9.3711122 76.7393922,9.15333333 C76.9570921,8.93555447 77.2324142,8.82666667 77.565367,8.82666667 C77.8983197,8.82666667 78.1736419,8.93555447 78.3913417,9.15333333 C78.6090416,9.3711122 78.7178899,9.64177616 78.7178899,9.96533333 L78.7178899,17.6746667 Z M77.5461583,7.61333333 C77.1107585,7.61333333 76.8034222,7.54488957 76.6241399,7.408 C76.4448577,7.27111043 76.3552179,7.02844619 76.3552179,6.68 L76.3552179,6.32533333 C76.3552179,5.97688715 76.4512605,5.73422291 76.6433486,5.59733333 C76.8354367,5.46044376 77.1427731,5.392 77.565367,5.392 C78.0135726,5.392 78.3273118,5.46044376 78.506594,5.59733333 C78.6858763,5.73422291 78.7755161,5.97688715 78.7755161,6.32533333 L78.7755161,6.68 C78.7755161,7.04089069 78.6826749,7.28666601 78.4969897,7.41733333 C78.3113045,7.54800065 77.9943639,7.61333333 77.5461583,7.61333333 Z M88.975344,8.84533333 C89.282685,8.84533333 89.5387987,8.94177681 89.7436927,9.13466667 C89.9485867,9.32755652 90.0510321,9.56710968 90.0510321,9.85333333 C90.0510321,10.0026674 89.9998094,10.1893322 89.8973624,10.4133333 L86.3053326,18.104 C86.2156914,18.3155566 86.0844332,18.4835549 85.9115539,18.608 C85.7386746,18.7324451 85.5433879,18.8008888 85.3256881,18.8133333 L85.1528096,18.832 C84.9351098,18.832 84.7334203,18.7666673 84.5477351,18.636 C84.3620499,18.5053327 84.217986,18.3280011 84.115539,18.104 L80.5427179,10.4133333 C80.4530768,10.2142212 80.4082569,10.0151121 80.4082569,9.816 C80.4082569,9.56710987 80.5171052,9.34000103 80.734805,9.13466667 C80.9525049,8.92933231 81.2214242,8.82666667 81.5415711,8.82666667 C81.7848827,8.82666667 82.0089822,8.88888827 82.2138761,9.01333333 C82.4187701,9.1377784 82.5724383,9.31199888 82.6748853,9.536 L85.3256881,15.4346667 L87.9572821,9.55466667 C88.0597291,9.31822104 88.2005916,9.1377784 88.3798739,9.01333333 C88.5591561,8.88888827 88.7576442,8.83288883 88.975344,8.84533333 Z M101,13.5866667 C100.987194,13.8853348 100.86554,14.1279991 100.635034,14.3146667 C100.404529,14.5013343 100.135609,14.5946667 99.8282683,14.5946667 L93.4893922,14.5946667 C93.6430627,15.3288926 93.995219,15.9044424 94.5458716,16.3213333 C95.0965242,16.7382243 95.7175998,16.9466667 96.409117,16.9466667 C96.9341578,16.9466667 97.3439397,16.9000005 97.6384748,16.8066667 C97.9330099,16.7133329 98.1667136,16.6137783 98.3395929,16.508 C98.5124722,16.4022217 98.6309248,16.3306669 98.6949541,16.2933333 C98.9254599,16.1813328 99.1431565,16.1253333 99.3480505,16.1253333 C99.6169738,16.1253333 99.8474761,16.2186657 100.039564,16.4053333 C100.231652,16.5920009 100.327695,16.8097765 100.327695,17.0586667 C100.327695,17.3946683 100.148415,17.6995542 99.7898509,17.9733333 C99.4312864,18.259557 98.9510733,18.5022212 98.3491972,18.7013333 C97.7473211,18.9004454 97.1390512,19 96.5243693,19 C95.4486758,19 94.5106596,18.7822244 93.7102924,18.3466667 C92.9099253,17.9111089 92.2920511,17.3106705 91.8566514,16.5453333 C91.4212516,15.7799962 91.203555,14.918227 91.203555,13.96 C91.203555,12.8897724 91.4340573,11.9502263 91.8950688,11.1413333 C92.3560803,10.3324404 92.9643502,9.71333548 93.7198968,9.284 C94.4754434,8.85466452 95.2822014,8.64 96.140195,8.64 C96.9853827,8.64 97.7825364,8.86399776 98.53168,9.312 C99.2808237,9.76000224 99.8794893,10.3635518 100.327695,11.1226667 C100.775901,11.8817816 101,12.7031067 101,13.5866667 Z M96.140195,10.6933333 C94.6547135,10.6933333 93.7775243,11.3715488 93.5086009,12.728 L98.5412844,12.728 L98.5412844,12.5973333 C98.4900609,12.0746641 98.2275444,11.6266685 97.7537271,11.2533333 C97.2799097,10.8799981 96.7420711,10.6933333 96.140195,10.6933333 Z" id="midrive" fill="#000000"></path>
            <path d="M107.069815,19.2637328 C107.354056,19.2637328 107.599537,19.2023626 107.806258,19.0796221 C108.012979,18.9568817 108.116339,18.8050711 108.116339,18.6241904 C108.116339,18.49499 108.074349,18.3819396 107.990368,18.2850392 C107.906388,18.1881388 107.806258,18.1396887 107.689977,18.1396887 C107.625377,18.1396887 107.534937,18.1558387 107.418656,18.1881388 C107.302376,18.220439 107.205476,18.236589 107.127955,18.236589 C106.830794,18.236589 106.591773,18.1493787 106.410893,17.974958 C106.230012,17.8005374 106.139572,17.4678462 106.139572,16.9768843 L106.139572,16.9768843 L106.139572,10.4845603 L108.077579,10.4845603 C108.232619,10.4845603 108.36182,10.4361101 108.46518,10.3392098 C108.568541,10.2423094 108.620221,10.1163389 108.620221,9.96129837 C108.620221,9.81917785 108.565311,9.68997737 108.45549,9.57369694 C108.34567,9.45741651 108.219699,9.39927629 108.077579,9.39927629 L108.077579,9.39927629 L106.139572,9.39927629 L106.139572,7.24808832 C106.139572,7.0801277 106.084661,6.94123719 105.974841,6.83141678 C105.865021,6.72159638 105.72613,6.66668617 105.558169,6.66668617 C105.390209,6.66668617 105.251318,6.72159638 105.141498,6.83141678 C105.031678,6.94123719 104.976767,7.0801277 104.976767,7.24808832 L104.976767,7.24808832 L104.976767,9.39927629 L103.562022,9.39927629 C103.406982,9.39927629 103.274551,9.45095648 103.164731,9.55431686 C103.05491,9.65767725 103,9.78687773 103,9.9419183 C103,10.0969589 103.05491,10.2261594 103.164731,10.3295197 C103.274551,10.4328801 103.406982,10.4845603 103.562022,10.4845603 L103.562022,10.4845603 L104.976767,10.4845603 L104.976767,17.0350246 C104.976767,17.7456272 105.102738,18.2624291 105.354679,18.5854303 C105.60662,18.9084315 105.868251,19.1022322 106.139572,19.1668325 C106.410893,19.2314327 106.720974,19.2637328 107.069815,19.2637328 Z M111.352811,19.2637328 C111.520772,19.2637328 111.659662,19.2088226 111.769482,19.0990022 C111.879303,18.9891818 111.934213,18.8502913 111.934213,18.6823307 L111.934213,18.6823307 L111.934213,13.8954529 C111.934213,13.3011307 112.086024,12.7132686 112.389645,12.1318664 C112.693266,11.5504643 113.080867,11.0756525 113.552449,10.7074311 C114.024031,10.3392098 114.498843,10.1550991 114.976884,10.1550991 C115.144845,10.1550991 115.322496,10.1873992 115.509836,10.2519994 C115.697177,10.3165997 115.823147,10.3488998 115.887748,10.3488998 C116.029868,10.3488998 116.152609,10.2939896 116.255969,10.1841692 C116.359329,10.0743488 116.41101,9.92899825 116.41101,9.74811758 C116.41101,9.54139682 116.307649,9.38635624 116.100929,9.28299586 C115.894208,9.17963548 115.661647,9.12795529 115.403246,9.12795529 C114.589283,9.14087533 113.88191,9.38958625 113.281128,9.87408805 C112.680346,10.3585898 112.231374,10.9690621 111.934213,11.7055048 L111.934213,11.7055048 L111.934213,10.0000585 C111.934213,9.83209789 111.879303,9.69320738 111.769482,9.58338697 C111.659662,9.47356657 111.520772,9.41865636 111.352811,9.41865636 C111.18485,9.41865636 111.04596,9.47356657 110.936139,9.58338697 C110.826319,9.69320738 110.771409,9.83209789 110.771409,10.0000585 L110.771409,10.0000585 L110.771409,18.6823307 C110.771409,18.8502913 110.826319,18.9891818 110.936139,19.0990022 C111.04596,19.2088226 111.18485,19.2637328 111.352811,19.2637328 Z M121.89557,19.4575335 C122.657853,19.4575335 123.361995,19.2572728 124.007998,18.8567513 C124.654,18.4562298 125.138502,17.965268 125.461503,17.3838659 L125.461503,17.3838659 L125.461503,18.6823307 C125.461503,18.8502913 125.516413,18.9891818 125.626234,19.0990022 C125.736054,19.2088226 125.874945,19.2637328 126.042905,19.2637328 C126.210866,19.2637328 126.349756,19.2088226 126.459577,19.0990022 C126.569397,18.9891818 126.624307,18.8502913 126.624307,18.6823307 L126.624307,18.6823307 L126.624307,9.96129837 C126.624307,9.79333775 126.569397,9.65121722 126.459577,9.53493679 C126.349756,9.41865636 126.210866,9.36051615 126.042905,9.36051615 C125.874945,9.36051615 125.736054,9.41865636 125.626234,9.53493679 C125.516413,9.65121722 125.461503,9.79333775 125.461503,9.96129837 L125.461503,9.96129837 L125.461503,11.1628628 C125.138502,10.5556206 124.654,10.0646588 124.007998,9.68997737 C123.361995,9.31529598 122.651393,9.12795529 121.87619,9.12795529 C121.036387,9.12795529 120.270874,9.3475961 119.579651,9.78687773 C118.888429,10.2261594 118.342557,10.8366316 117.942035,11.6182945 C117.541514,12.3999574 117.341253,13.2817507 117.341253,14.2636743 C117.341253,15.2455979 117.538284,16.1306212 117.932345,16.9187441 C118.326407,17.7068671 118.869049,18.3270293 119.560271,18.779231 C120.251494,19.2314327 121.029927,19.4575335 121.89557,19.4575335 Z M122.01185,18.3722495 C121.327088,18.3722495 120.716616,18.1945989 120.180434,17.8392975 C119.644252,17.4839962 119.22758,16.9930344 118.930419,16.3664121 C118.633258,15.7397898 118.484677,15.0388772 118.484677,14.2636743 C118.484677,13.4884714 118.636488,12.7940189 118.940109,12.1803166 C119.24373,11.5666143 119.663632,11.0853425 120.199814,10.7365012 C120.735996,10.38766 121.340008,10.2132393 122.01185,10.2132393 C122.683693,10.2132393 123.287705,10.39089 123.823887,10.7461913 C124.360069,11.1014926 124.779971,11.5892244 125.083592,12.2093867 C125.387213,12.829549 125.539023,13.5143115 125.539023,14.2636743 C125.539023,15.0388772 125.387213,15.7397898 125.083592,16.3664121 C124.779971,16.9930344 124.360069,17.4839962 123.823887,17.8392975 C123.287705,18.1945989 122.683693,18.3722495 122.01185,18.3722495 Z M137.244587,19.2637328 C137.399627,19.2637328 137.535288,19.2088226 137.651568,19.0990022 C137.767849,18.9891818 137.825989,18.8502913 137.825989,18.6823307 L137.825989,18.6823307 L137.825989,12.9845896 C137.825989,11.8217853 137.544978,10.8883118 136.982956,10.1841692 C136.420934,9.48002659 135.53914,9.12795529 134.337576,9.12795529 C133.652814,9.12795529 132.984201,9.31206597 132.331739,9.68028733 C131.679276,10.0485087 131.178624,10.5104004 130.829783,11.0659625 L130.829783,11.0659625 L130.829783,10.0000585 C130.829783,9.83209789 130.774873,9.69320738 130.665052,9.58338697 C130.555232,9.47356657 130.416342,9.41865636 130.248381,9.41865636 C130.08042,9.41865636 129.94153,9.47356657 129.831709,9.58338697 C129.721889,9.69320738 129.666979,9.83209789 129.666979,10.0000585 L129.666979,10.0000585 L129.666979,18.6823307 C129.666979,18.8502913 129.721889,18.9891818 129.831709,19.0990022 C129.94153,19.2088226 130.08042,19.2637328 130.248381,19.2637328 C130.416342,19.2637328 130.555232,19.2088226 130.665052,19.0990022 C130.774873,18.9891818 130.829783,18.8502913 130.829783,18.6823307 L130.829783,18.6823307 L130.829783,13.0427298 C130.829783,12.5388479 130.984824,12.0704962 131.294905,11.6376746 C131.604986,11.204853 132.008737,10.8592417 132.506159,10.6008407 C133.003581,10.3424398 133.530073,10.2132393 134.085635,10.2132393 C134.964198,10.2132393 135.613431,10.4748703 136.033332,10.9981322 C136.453234,11.5213941 136.663185,12.2029267 136.663185,13.0427298 L136.663185,13.0427298 L136.663185,18.6823307 C136.663185,18.8502913 136.718095,18.9891818 136.827915,19.0990022 C136.937736,19.2088226 137.076626,19.2637328 137.244587,19.2637328 Z M144.066372,19.4575335 C145.061216,19.4575335 145.894559,19.2088226 146.566401,18.7114008 C147.238244,18.2139789 147.574165,17.5453665 147.574165,16.7055633 C147.574165,16.085401 147.435275,15.5879792 147.157494,15.2132978 C146.879712,14.8386164 146.521181,14.5479154 146.0819,14.3411946 C145.642618,14.1344738 145.087056,13.9471331 144.415213,13.7791725 C143.54957,13.5595317 142.893878,13.3140508 142.448136,13.0427298 C142.002394,12.7714088 141.766604,12.3773473 141.740763,11.8605454 C141.740763,11.2920633 141.957174,10.8657017 142.389996,10.5814607 C142.822817,10.2972196 143.342849,10.1550991 143.950092,10.1550991 C144.441053,10.1550991 144.899715,10.2455394 145.326077,10.4264201 C145.752438,10.6073008 146.12066,10.8721617 146.430741,11.221003 C146.534101,11.3243634 146.650382,11.3760436 146.779582,11.3760436 C146.921703,11.3760436 147.037983,11.3372835 147.128423,11.2597632 C147.257624,11.1434827 147.322224,11.0078222 147.322224,10.8527817 C147.322224,10.6848211 147.264084,10.5556206 147.147803,10.4651802 C146.747282,10.0000585 146.26601,9.66090726 145.703988,9.44772647 C145.141966,9.23454568 144.583174,9.12795529 144.027612,9.12795529 C143.38161,9.12795529 142.803437,9.24423572 142.293096,9.47679658 C141.782754,9.70935744 141.379002,10.0355886 141.081841,10.4554902 C140.78468,10.8753918 140.636099,11.3502035 140.636099,11.8799255 C140.636099,12.7197286 140.93972,13.3560409 141.546963,13.7888625 C142.154205,14.2216841 142.994008,14.5737555 144.066372,14.8450765 C144.828655,15.0388772 145.422977,15.271438 145.849339,15.542759 C146.2757,15.81408 146.488881,16.2210616 146.488881,16.7637036 C146.488881,17.3192656 146.25955,17.7423972 145.800888,18.0330983 C145.342227,18.3237993 144.802815,18.4691499 144.182652,18.4691499 C142.916488,18.4691499 141.902264,17.965268 141.139981,16.9575043 C141.010781,16.8283038 140.86866,16.7637036 140.71362,16.7637036 C140.584419,16.7637036 140.481059,16.8024637 140.403539,16.879984 C140.235578,16.9704243 140.151598,17.0996248 140.151598,17.2675854 C140.151598,17.3838659 140.203278,17.5259864 140.306638,17.693947 C141.236882,18.8696714 142.490126,19.4575335 144.066372,19.4575335 Z M151.5277,19.2637328 C151.69566,19.2637328 151.834551,19.2088226 151.944371,19.0990022 C152.054192,18.9891818 152.109102,18.8502913 152.109102,18.6823307 L152.109102,18.6823307 L152.109102,10.6396009 L154.27967,10.6396009 C154.42179,10.6396009 154.547761,10.5879207 154.657581,10.4845603 C154.767402,10.3811999 154.822312,10.2519994 154.822312,10.0969589 C154.822312,9.9419183 154.767402,9.81271782 154.657581,9.70935744 C154.547761,9.60599706 154.42179,9.55431686 154.27967,9.55431686 L154.27967,9.55431686 L152.109102,9.55431686 L152.109102,7.55816947 C152.109102,7.0801277 152.222152,6.70544632 152.448253,6.43412531 C152.674354,6.16280431 152.994125,6.0271438 153.407567,6.0271438 C153.575527,6.0271438 153.801628,6.06590395 154.085869,6.14342423 C154.25383,6.20802447 154.39595,6.24032459 154.512231,6.24032459 C154.641431,6.24032459 154.757712,6.1886444 154.861072,6.08528402 C154.964432,5.98192364 155.016113,5.85272316 155.016113,5.69768258 C155.016113,5.45220167 154.861072,5.27455102 154.550991,5.16473061 C154.24091,5.0549102 153.904988,5 153.543227,5 C152.755104,5 152.125252,5.22287083 151.65367,5.66861248 C151.182088,6.11435413 150.946298,6.74420646 150.946298,7.55816947 L150.946298,7.55816947 L150.946298,9.55431686 L149.531552,9.55431686 C149.376512,9.55431686 149.247311,9.60276704 149.143951,9.6996674 C149.04059,9.79656776 148.98891,9.92899825 148.98891,10.0969589 C148.98891,10.2390794 149.04059,10.3650499 149.143951,10.4748703 C149.247311,10.5846907 149.376512,10.6396009 149.531552,10.6396009 L149.531552,10.6396009 L150.946298,10.6396009 L150.946298,18.6823307 C150.946298,18.8502913 151.001208,18.9891818 151.111028,19.0990022 C151.220849,19.2088226 151.359739,19.2637328 151.5277,19.2637328 Z M161.198356,19.4575335 C161.896038,19.4575335 162.558191,19.2960329 163.184813,18.9730317 C163.811435,18.6500305 164.331467,18.236589 164.744909,17.7327071 C164.874109,17.6035067 164.938709,17.4678462 164.938709,17.3257256 C164.938709,17.1965252 164.887029,17.0802447 164.783669,16.9768843 C164.680308,16.873524 164.564028,16.8218438 164.434827,16.8218438 C164.305627,16.8218438 164.169967,16.879984 164.027846,16.9962644 C163.730685,17.3967859 163.336623,17.7262471 162.845662,17.9846481 C162.3547,18.243049 161.799138,18.3722495 161.178975,18.3722495 C160.377932,18.3722495 159.68348,18.1945989 159.095618,17.8392975 C158.507756,17.4839962 158.055554,16.9994944 157.739013,16.3857922 C157.422472,15.7720899 157.264201,15.0776373 157.264201,14.3024344 L157.264201,14.3024344 L164.589868,14.3024344 C164.744909,14.3024344 164.880569,14.2475242 164.99685,14.1377038 C165.11313,14.0278834 165.17127,13.8954529 165.17127,13.7404124 C165.15835,12.7843288 164.938709,11.9574458 164.512348,11.2597632 C164.085986,10.5620806 163.533654,10.0323586 162.855352,9.6705973 C162.177049,9.30883596 161.450296,9.12795529 160.675094,9.12795529 C159.886971,9.12795529 159.144068,9.33790606 158.446385,9.75780762 C157.748703,10.1777092 157.189911,10.7849514 156.770009,11.5795344 C156.350108,12.3741173 156.140157,13.3011307 156.140157,14.3605747 C156.140157,15.3683384 156.353338,16.2565917 156.779699,17.0253345 C157.206061,17.7940774 157.800383,18.3916296 158.562666,18.8179912 C159.324949,19.2443527 160.203512,19.4575335 161.198356,19.4575335 Z M163.969706,13.2559106 L157.361101,13.2559106 C157.541982,12.286907 157.952193,11.5440042 158.591736,11.0272023 C159.231278,10.5104004 159.925731,10.2519994 160.675094,10.2519994 C161.191895,10.2519994 161.692547,10.3650499 162.177049,10.5911507 C162.661551,10.8172515 163.065302,11.1467128 163.388304,11.5795344 C163.711305,12.012356 163.905106,12.5194678 163.969706,13.10087 L163.969706,13.10087 L163.969706,13.2559106 Z M168.155801,19.2637328 C168.323762,19.2637328 168.462652,19.2088226 168.572473,19.0990022 C168.682293,18.9891818 168.737203,18.8502913 168.737203,18.6823307 L168.737203,18.6823307 L168.737203,13.8954529 C168.737203,13.3011307 168.889014,12.7132686 169.192635,12.1318664 C169.496256,11.5504643 169.883858,11.0756525 170.355439,10.7074311 C170.827021,10.3392098 171.301833,10.1550991 171.779875,10.1550991 C171.947835,10.1550991 172.125486,10.1873992 172.312827,10.2519994 C172.500167,10.3165997 172.626138,10.3488998 172.690738,10.3488998 C172.832859,10.3488998 172.955599,10.2939896 173.058959,10.1841692 C173.16232,10.0743488 173.214,9.92899825 173.214,9.74811758 C173.214,9.54139682 173.11064,9.38635624 172.903919,9.28299586 C172.697198,9.17963548 172.464637,9.12795529 172.206236,9.12795529 C171.392273,9.14087533 170.684901,9.38958625 170.084118,9.87408805 C169.483336,10.3585898 169.034365,10.9690621 168.737203,11.7055048 L168.737203,11.7055048 L168.737203,10.0000585 C168.737203,9.83209789 168.682293,9.69320738 168.572473,9.58338697 C168.462652,9.47356657 168.323762,9.41865636 168.155801,9.41865636 C167.987841,9.41865636 167.84895,9.47356657 167.73913,9.58338697 C167.629309,9.69320738 167.574399,9.83209789 167.574399,10.0000585 L167.574399,10.0000585 L167.574399,18.6823307 C167.574399,18.8502913 167.629309,18.9891818 167.73913,19.0990022 C167.84895,19.2088226 167.987841,19.2637328 168.155801,19.2637328 Z" id="transfer" fill="#000000" fill-rule="nonzero"></path>
            <g id="midrive-transfer-icon" transform="translate(0.000000, -0.000000)" fill-rule="nonzero">
                <g id="logo-design-final_logo-design-concept-1">
                    <path d="M25.7487308,10.7372766 C25.7491478,11.4300584 25.6825408,12.1212632 25.5498061,12.8012589 C25.5340208,12.8842384 25.5171835,12.9666926 25.4992937,13.0486217 C25.0917031,14.8985974 24.1994564,16.60744 22.91369,18.0006037 C22.5980434,18.3428547 22.2605925,18.664412 21.9034417,18.9632703 C21.7663904,18.6554831 21.6672717,18.3322307 21.6082599,18.0006037 C21.452291,17.1275065 21.5748634,16.2275673 21.9586899,15.4277158 L21.9618468,15.4229891 C22.0265657,15.3111245 22.0881277,15.1976842 22.1465328,15.0826684 L22.1496897,15.0763661 C22.8439155,13.7351056 23.2050118,12.2469525 23.2025578,10.7372766 C23.2022955,10.3681847 23.1806864,9.99941562 23.1378387,9.63280971 L23.1378387,9.63280971 C23.1283677,9.55403177 23.1188965,9.47840493 23.107847,9.40120254 C23.1070885,9.3975631 23.1065615,9.39387946 23.1062685,9.39017364 C22.9629324,8.38921258 22.6591303,7.41780104 22.2065163,6.51320284 C20.6516813,3.40777602 17.4362509,1.27604466 13.7220106,1.27604466 C9.84991908,1.27604466 6.51925733,3.59369199 5.04808351,6.91654595 L4.92811658,6.95908607 C6.45927384,2.89571934 10.3897704,0.00456853061 14.9958704,0.00456853061 C19.1457802,0.00456853061 22.7463676,2.35057591 24.5395581,5.78687013 C24.7377871,6.1661545 24.9127967,6.55708502 25.0636244,6.95751047 C25.5184443,8.16589681 25.7505384,9.44643112 25.7487308,10.7372766 Z" id="Shape" fill="#81D4FA"></path>
                    <path d="M23.2025578,21.4368978 C22.9689378,21.4589558 22.7321609,21.4699879 22.4922271,21.4699879 C20.5040866,21.4708207 18.5971113,20.682991 17.1911355,19.2799415 C15.7851597,17.876892 14.9954514,15.973651 14.9958704,13.9892304 C14.9958704,9.85653907 11.6399524,6.50690064 7.4995137,6.50690064 C6.66465658,6.50569072 5.83550051,6.64415739 5.04650504,6.91654595 C6.51925733,3.59369199 9.84991908,1.27604466 13.7235892,1.27604466 C17.4378295,1.27604466 20.6532599,3.40777602 22.2080948,6.51320284 C22.6607089,7.41780104 22.9645108,8.38921258 23.107847,9.39017364 C23.1081399,9.39387946 23.1086671,9.3975631 23.1094256,9.40120254 C23.117318,9.47998048 23.1267891,9.55718287 23.1394172,9.63280971 C23.182265,9.99941562 23.203874,10.3681847 23.2041363,10.7372766 C23.2065903,12.2469525 22.8454939,13.7351056 22.1512683,15.0763661 L22.1481114,15.0826684 C22.0807615,15.1929575 22.0191995,15.3063978 21.9634251,15.4229891 L21.9602684,15.4277158 C21.4398842,16.5085592 21.4050398,17.7594002 21.8644487,18.8674354 C22.3238574,19.9754706 23.2340825,20.835936 24.3675001,21.2336507 C23.9851694,21.3319851 23.595638,21.3999465 23.2025578,21.4368978 Z" id="Shape" fill="#03A9F4"></path>
                    <path d="M29.9870171,17.2553644 C29.9870171,19.5840405 28.095947,21.4699977 25.7644839,21.4699977 C25.2887794,21.4706722 24.8164091,21.3907593 24.3675001,21.2336507 C26.9988809,20.5561603 29.0714678,18.4890269 29.7502283,15.8609945 C29.9076018,16.3090713 29.9876636,16.7805526 29.9870171,17.2553644 L29.9870171,17.2553644 Z" id="Shape" fill="#03A9F4"></path>
                    <path d="M22.4922271,21.4699895 L7.4995137,21.4699895 C7.2595798,21.4699895 7.02280285,21.4589558 6.78918299,21.4368978 C2.98338896,21.079246 0.004735538,17.8808612 0.004735538,13.9892304 C0.004735538,10.7593344 2.0552235,8.00683279 4.92811658,6.95908607 L5.04808351,6.91654595 C5.83707904,6.64415739 6.66623505,6.50569072 7.50109222,6.50687735 C11.641531,6.50687735 14.9974489,9.85653907 14.9974489,13.9892304 C14.9953639,15.4102126 15.400683,16.80212 16.1655483,18.0006037 C17.539759,20.1624716 19.9271415,21.471648 22.4922271,21.4699895 L22.4922271,21.4699895 Z" id="Shape" fill="#01579B"></path>
                    <path d="M29.9870092,13.9892304 C29.9873827,14.6206158 29.9078269,15.2495184 29.7502283,15.8609945 L29.7502283,15.8609945 C29.0714678,18.4874514 26.9988809,20.5561603 24.3675001,21.2336507 C23.2679685,20.8478146 22.3765317,20.0264457 21.9034417,18.9632703 C22.2605925,18.664412 22.5980434,18.3428547 22.91369,18.0006037 C24.1994564,16.60744 25.0917031,14.8985974 25.4992937,13.0486217 C25.5171835,12.9666926 25.5340208,12.8842384 25.5498061,12.8012589 C25.9306316,10.8463804 25.7623685,8.82445939 25.0636244,6.95908607 C27.4408643,7.8256435 29.2545753,9.85969022 29.8102118,12.3648291 C29.927991,12.898294 29.9872708,13.4429659 29.9870092,13.9892304 L29.9870092,13.9892304 Z" id="Shape" fill="#01579B"></path>
                </g>
                <path d="M17.3052632,13.2809211 L17.3052632,16.5621711 L23.3684211,10.9559211 L17.3052632,5.36842105 L17.3052632,8.55592105 C11.4126317,9.36217105 9.06315799,13.3559211 8.21052632,17.3684211 C10.3136843,14.5559211 13.0989474,13.2809211 17.3052632,13.2809211 Z" id="Path" fill="#FFFFFF"></path>
            </g>
        </g>
    </g>
</svg>