<svg id="svg" version="1.1" width="400" height="78.35611127265679" viewBox="0 0 400 78.35611127265679" xmlns="http://www.w3.org/2000/svg" xmlns:xlink="http://www.w3.org/1999/xlink" ><g id="svgg"><path id="path0" d="M299.167 6.917 L 299.167 13.833 295.667 13.833 L 292.167 13.833 292.167 19.583 L 292.167 25.333 295.667 25.333 L 299.167 25.333 299.167 44.500 L 299.167 63.667 306.250 63.667 L 313.333 63.667 313.333 44.500 L 313.333 25.333 321.083 25.333 L 328.833 25.333 328.833 19.583 L 328.833 13.833 321.083 13.833 L 313.333 13.833 313.333 6.917 L 313.333 0.000 306.250 0.000 L 299.167 0.000 299.167 6.917 M93.667 0.422 C 93.529 0.449,92.629 0.561,91.667 0.669 C 82.649 1.689,77.627 5.631,76.067 12.917 C 75.264 16.667,75.278 16.191,75.213 40.125 L 75.152 62.667 82.243 62.667 L 89.333 62.667 89.333 51.000 L 89.333 39.333 115.500 39.333 L 141.667 39.333 141.667 33.333 L 141.667 27.333 115.481 27.333 L 89.295 27.333 89.377 23.375 C 89.521 16.349,90.700 14.208,95.113 12.956 L 96.417 12.586 118.042 12.539 L 139.667 12.492 139.667 6.412 L 139.667 0.333 116.792 0.353 C 104.210 0.363,93.804 0.394,93.667 0.422 M0.003 27.375 C 0.007 44.804,0.044 45.239,1.863 48.993 C 3.837 53.071,7.373 55.371,13.455 56.534 C 15.403 56.907,15.541 56.910,33.480 56.960 L 51.542 57.011 51.453 59.797 C 51.327 63.754,50.974 64.639,49.184 65.478 L 48.250 65.917 37.792 65.966 L 27.333 66.016 27.333 71.758 L 27.333 77.500 37.875 77.499 C 43.673 77.498,49.279 77.422,50.333 77.331 C 58.246 76.644,62.249 74.045,64.061 68.417 C 65.010 65.469,65.000 65.794,65.000 38.270 L 65.000 13.000 58.250 13.000 L 51.500 13.000 51.500 29.500 L 51.500 46.000 36.208 45.997 C 17.760 45.993,17.220 45.951,15.466 44.366 C 13.679 42.752,13.667 42.631,13.667 26.507 L 13.667 13.000 6.833 13.000 L 0.000 13.000 0.003 27.375 M335.046 28.958 C 335.112 45.478,335.098 45.218,336.132 48.167 C 337.789 52.892,341.268 55.795,346.833 57.097 C 350.210 57.887,350.248 57.889,368.896 57.955 L 386.542 58.018 386.461 60.884 C 386.348 64.962,385.871 65.937,383.651 66.632 C 382.808 66.896,372.872 66.917,228.958 66.958 L 75.167 67.002 75.167 72.667 L 75.167 78.333 229.959 78.333 C 398.725 78.333,386.985 78.400,390.418 77.416 C 395.092 76.076,397.692 73.676,399.082 69.417 C 400.003 66.592,399.994 66.906,399.997 39.292 L 400.000 13.833 393.250 13.833 L 386.500 13.833 386.500 30.333 L 386.500 46.833 370.511 46.833 C 351.774 46.833,352.033 46.856,350.270 45.092 C 348.772 43.594,348.679 42.516,348.672 26.542 L 348.667 13.833 341.826 13.833 L 334.985 13.833 335.046 28.958 M166.950 14.171 C 154.975 15.073,149.942 19.354,148.551 29.820 C 148.188 32.557,148.135 44.422,148.475 47.250 C 149.819 58.454,154.812 62.589,168.085 63.492 C 171.271 63.708,189.312 63.714,192.500 63.499 C 206.170 62.578,211.291 58.232,212.348 46.658 C 212.683 42.978,212.462 30.844,212.013 28.360 C 210.458 19.747,206.328 16.012,196.656 14.470 C 194.230 14.083,171.190 13.851,166.950 14.171 M240.750 14.174 C 228.210 15.026,223.037 19.967,222.171 31.917 C 220.605 53.510,224.484 61.234,237.826 63.089 C 241.960 63.664,260.123 63.920,266.414 63.492 C 279.371 62.610,284.360 58.762,285.961 48.417 C 286.332 46.014,286.382 32.574,286.029 29.917 C 284.615 19.280,279.520 15.007,267.250 14.165 C 264.561 13.981,243.488 13.988,240.750 14.174 M192.289 26.227 C 197.657 27.181,198.667 29.161,198.667 38.726 C 198.667 48.853,197.438 50.848,190.789 51.512 C 187.091 51.882,169.328 51.626,167.667 51.179 C 162.900 49.896,162.252 48.429,162.251 38.917 C 162.249 27.804,163.092 26.600,171.333 25.936 C 173.854 25.733,190.837 25.969,192.289 26.227 M266.034 26.221 C 271.456 27.122,272.389 28.947,272.399 38.667 C 272.410 48.336,271.681 49.943,266.707 51.212 C 264.434 51.792,243.900 51.792,241.626 51.212 C 236.776 49.975,236.000 48.275,236.000 38.885 C 236.000 28.229,237.023 26.641,244.298 26.006 C 247.276 25.746,264.182 25.913,266.034 26.221 " stroke="none" fill="#ffffff" fill-rule="evenodd"></path><path id="path1" d="M299.167 6.917 L 299.167 13.833 295.667 13.833 L 292.167 13.833 292.167 19.583 L 292.167 25.333 295.667 25.333 L 299.167 25.333 299.167 44.500 L 299.167 63.667 306.250 63.667 L 313.333 63.667 313.333 44.500 L 313.333 25.333 321.083 25.333 L 328.833 25.333 328.833 19.583 L 328.833 13.833 321.083 13.833 L 313.333 13.833 313.333 6.917 L 313.333 0.000 306.250 0.000 L 299.167 0.000 299.167 6.917 M93.667 0.422 C 93.529 0.449,92.629 0.561,91.667 0.669 C 82.649 1.689,77.627 5.631,76.067 12.917 C 75.264 16.667,75.278 16.191,75.213 40.125 L 75.152 62.667 82.243 62.667 L 89.333 62.667 89.333 51.000 L 89.333 39.333 115.500 39.333 L 141.667 39.333 141.667 33.333 L 141.667 27.333 115.481 27.333 L 89.295 27.333 89.377 23.375 C 89.521 16.349,90.700 14.208,95.113 12.956 L 96.417 12.586 118.042 12.539 L 139.667 12.492 139.667 6.412 L 139.667 0.333 116.792 0.353 C 104.210 0.363,93.804 0.394,93.667 0.422 M0.003 27.375 C 0.007 44.804,0.044 45.239,1.863 48.993 C 3.837 53.071,7.373 55.371,13.455 56.534 C 15.403 56.907,15.541 56.910,33.480 56.960 L 51.542 57.011 51.453 59.797 C 51.327 63.754,50.974 64.639,49.184 65.478 L 48.250 65.917 37.792 65.966 L 27.333 66.016 27.333 71.758 L 27.333 77.500 37.875 77.499 C 43.673 77.498,49.279 77.422,50.333 77.331 C 58.246 76.644,62.249 74.045,64.061 68.417 C 65.010 65.469,65.000 65.794,65.000 38.270 L 65.000 13.000 58.250 13.000 L 51.500 13.000 51.500 29.500 L 51.500 46.000 36.208 45.997 C 17.760 45.993,17.220 45.951,15.466 44.366 C 13.679 42.752,13.667 42.631,13.667 26.507 L 13.667 13.000 6.833 13.000 L 0.000 13.000 0.003 27.375 M335.046 28.958 C 335.112 45.478,335.098 45.218,336.132 48.167 C 337.789 52.892,341.268 55.795,346.833 57.097 C 350.210 57.887,350.248 57.889,368.896 57.955 L 386.542 58.018 386.461 60.884 C 386.348 64.962,385.871 65.937,383.651 66.632 C 382.808 66.896,372.872 66.917,228.958 66.958 L 75.167 67.002 75.167 72.667 L 75.167 78.333 229.959 78.333 C 398.725 78.333,386.985 78.400,390.418 77.416 C 395.092 76.076,397.692 73.676,399.082 69.417 C 400.003 66.592,399.994 66.906,399.997 39.292 L 400.000 13.833 393.250 13.833 L 386.500 13.833 386.500 30.333 L 386.500 46.833 370.511 46.833 C 351.774 46.833,352.033 46.856,350.270 45.092 C 348.772 43.594,348.679 42.516,348.672 26.542 L 348.667 13.833 341.826 13.833 L 334.985 13.833 335.046 28.958 M166.950 14.171 C 154.975 15.073,149.942 19.354,148.551 29.820 C 148.188 32.557,148.135 44.422,148.475 47.250 C 149.819 58.454,154.812 62.589,168.085 63.492 C 171.271 63.708,189.312 63.714,192.500 63.499 C 206.170 62.578,211.291 58.232,212.348 46.658 C 212.683 42.978,212.462 30.844,212.013 28.360 C 210.458 19.747,206.328 16.012,196.656 14.470 C 194.230 14.083,171.190 13.851,166.950 14.171 M240.750 14.174 C 228.210 15.026,223.037 19.967,222.171 31.917 C 220.605 53.510,224.484 61.234,237.826 63.089 C 241.960 63.664,260.123 63.920,266.414 63.492 C 279.371 62.610,284.360 58.762,285.961 48.417 C 286.332 46.014,286.382 32.574,286.029 29.917 C 284.615 19.280,279.520 15.007,267.250 14.165 C 264.561 13.981,243.488 13.988,240.750 14.174 M192.289 26.227 C 197.657 27.181,198.667 29.161,198.667 38.726 C 198.667 48.853,197.438 50.848,190.789 51.512 C 187.091 51.882,169.328 51.626,167.667 51.179 C 162.900 49.896,162.252 48.429,162.251 38.917 C 162.249 27.804,163.092 26.600,171.333 25.936 C 173.854 25.733,190.837 25.969,192.289 26.227 M266.034 26.221 C 271.456 27.122,272.389 28.947,272.399 38.667 C 272.410 48.336,271.681 49.943,266.707 51.212 C 264.434 51.792,243.900 51.792,241.626 51.212 C 236.776 49.975,236.000 48.275,236.000 38.885 C 236.000 28.229,237.023 26.641,244.298 26.006 C 247.276 25.746,264.182 25.913,266.034 26.221 " stroke="none" fill="#ffffff" fill-rule="evenodd"></path><path id="path2" d="M299.167 6.917 L 299.167 13.833 295.667 13.833 L 292.167 13.833 292.167 19.583 L 292.167 25.333 295.667 25.333 L 299.167 25.333 299.167 44.500 L 299.167 63.667 306.250 63.667 L 313.333 63.667 313.333 44.500 L 313.333 25.333 321.083 25.333 L 328.833 25.333 328.833 19.583 L 328.833 13.833 321.083 13.833 L 313.333 13.833 313.333 6.917 L 313.333 0.000 306.250 0.000 L 299.167 0.000 299.167 6.917 M93.667 0.422 C 93.529 0.449,92.629 0.561,91.667 0.669 C 82.649 1.689,77.627 5.631,76.067 12.917 C 75.264 16.667,75.278 16.191,75.213 40.125 L 75.152 62.667 82.243 62.667 L 89.333 62.667 89.333 51.000 L 89.333 39.333 115.500 39.333 L 141.667 39.333 141.667 33.333 L 141.667 27.333 115.481 27.333 L 89.295 27.333 89.377 23.375 C 89.521 16.349,90.700 14.208,95.113 12.956 L 96.417 12.586 118.042 12.539 L 139.667 12.492 139.667 6.412 L 139.667 0.333 116.792 0.353 C 104.210 0.363,93.804 0.394,93.667 0.422 M0.003 27.375 C 0.007 44.804,0.044 45.239,1.863 48.993 C 3.837 53.071,7.373 55.371,13.455 56.534 C 15.403 56.907,15.541 56.910,33.480 56.960 L 51.542 57.011 51.453 59.797 C 51.327 63.754,50.974 64.639,49.184 65.478 L 48.250 65.917 37.792 65.966 L 27.333 66.016 27.333 71.758 L 27.333 77.500 37.875 77.499 C 43.673 77.498,49.279 77.422,50.333 77.331 C 58.246 76.644,62.249 74.045,64.061 68.417 C 65.010 65.469,65.000 65.794,65.000 38.270 L 65.000 13.000 58.250 13.000 L 51.500 13.000 51.500 29.500 L 51.500 46.000 36.208 45.997 C 17.760 45.993,17.220 45.951,15.466 44.366 C 13.679 42.752,13.667 42.631,13.667 26.507 L 13.667 13.000 6.833 13.000 L 0.000 13.000 0.003 27.375 M335.046 28.958 C 335.112 45.478,335.098 45.218,336.132 48.167 C 337.789 52.892,341.268 55.795,346.833 57.097 C 350.210 57.887,350.248 57.889,368.896 57.955 L 386.542 58.018 386.461 60.884 C 386.348 64.962,385.871 65.937,383.651 66.632 C 382.808 66.896,372.872 66.917,228.958 66.958 L 75.167 67.002 75.167 72.667 L 75.167 78.333 229.959 78.333 C 398.725 78.333,386.985 78.400,390.418 77.416 C 395.092 76.076,397.692 73.676,399.082 69.417 C 400.003 66.592,399.994 66.906,399.997 39.292 L 400.000 13.833 393.250 13.833 L 386.500 13.833 386.500 30.333 L 386.500 46.833 370.511 46.833 C 351.774 46.833,352.033 46.856,350.270 45.092 C 348.772 43.594,348.679 42.516,348.672 26.542 L 348.667 13.833 341.826 13.833 L 334.985 13.833 335.046 28.958 M166.950 14.171 C 154.975 15.073,149.942 19.354,148.551 29.820 C 148.188 32.557,148.135 44.422,148.475 47.250 C 149.819 58.454,154.812 62.589,168.085 63.492 C 171.271 63.708,189.312 63.714,192.500 63.499 C 206.170 62.578,211.291 58.232,212.348 46.658 C 212.683 42.978,212.462 30.844,212.013 28.360 C 210.458 19.747,206.328 16.012,196.656 14.470 C 194.230 14.083,171.190 13.851,166.950 14.171 M240.750 14.174 C 228.210 15.026,223.037 19.967,222.171 31.917 C 220.605 53.510,224.484 61.234,237.826 63.089 C 241.960 63.664,260.123 63.920,266.414 63.492 C 279.371 62.610,284.360 58.762,285.961 48.417 C 286.332 46.014,286.382 32.574,286.029 29.917 C 284.615 19.280,279.520 15.007,267.250 14.165 C 264.561 13.981,243.488 13.988,240.750 14.174 M192.289 26.227 C 197.657 27.181,198.667 29.161,198.667 38.726 C 198.667 48.853,197.438 50.848,190.789 51.512 C 187.091 51.882,169.328 51.626,167.667 51.179 C 162.900 49.896,162.252 48.429,162.251 38.917 C 162.249 27.804,163.092 26.600,171.333 25.936 C 173.854 25.733,190.837 25.969,192.289 26.227 M266.034 26.221 C 271.456 27.122,272.389 28.947,272.399 38.667 C 272.410 48.336,271.681 49.943,266.707 51.212 C 264.434 51.792,243.900 51.792,241.626 51.212 C 236.776 49.975,236.000 48.275,236.000 38.885 C 236.000 28.229,237.023 26.641,244.298 26.006 C 247.276 25.746,264.182 25.913,266.034 26.221 " stroke="none" fill="#ffffff" fill-rule="evenodd"></path><path id="path3" d="M299.167 6.917 L 299.167 13.833 295.667 13.833 L 292.167 13.833 292.167 19.583 L 292.167 25.333 295.667 25.333 L 299.167 25.333 299.167 44.500 L 299.167 63.667 306.250 63.667 L 313.333 63.667 313.333 44.500 L 313.333 25.333 321.083 25.333 L 328.833 25.333 328.833 19.583 L 328.833 13.833 321.083 13.833 L 313.333 13.833 313.333 6.917 L 313.333 0.000 306.250 0.000 L 299.167 0.000 299.167 6.917 M93.667 0.422 C 93.529 0.449,92.629 0.561,91.667 0.669 C 82.649 1.689,77.627 5.631,76.067 12.917 C 75.264 16.667,75.278 16.191,75.213 40.125 L 75.152 62.667 82.243 62.667 L 89.333 62.667 89.333 51.000 L 89.333 39.333 115.500 39.333 L 141.667 39.333 141.667 33.333 L 141.667 27.333 115.481 27.333 L 89.295 27.333 89.377 23.375 C 89.521 16.349,90.700 14.208,95.113 12.956 L 96.417 12.586 118.042 12.539 L 139.667 12.492 139.667 6.412 L 139.667 0.333 116.792 0.353 C 104.210 0.363,93.804 0.394,93.667 0.422 M0.003 27.375 C 0.007 44.804,0.044 45.239,1.863 48.993 C 3.837 53.071,7.373 55.371,13.455 56.534 C 15.403 56.907,15.541 56.910,33.480 56.960 L 51.542 57.011 51.453 59.797 C 51.327 63.754,50.974 64.639,49.184 65.478 L 48.250 65.917 37.792 65.966 L 27.333 66.016 27.333 71.758 L 27.333 77.500 37.875 77.499 C 43.673 77.498,49.279 77.422,50.333 77.331 C 58.246 76.644,62.249 74.045,64.061 68.417 C 65.010 65.469,65.000 65.794,65.000 38.270 L 65.000 13.000 58.250 13.000 L 51.500 13.000 51.500 29.500 L 51.500 46.000 36.208 45.997 C 17.760 45.993,17.220 45.951,15.466 44.366 C 13.679 42.752,13.667 42.631,13.667 26.507 L 13.667 13.000 6.833 13.000 L 0.000 13.000 0.003 27.375 M335.046 28.958 C 335.112 45.478,335.098 45.218,336.132 48.167 C 337.789 52.892,341.268 55.795,346.833 57.097 C 350.210 57.887,350.248 57.889,368.896 57.955 L 386.542 58.018 386.461 60.884 C 386.348 64.962,385.871 65.937,383.651 66.632 C 382.808 66.896,372.872 66.917,228.958 66.958 L 75.167 67.002 75.167 72.667 L 75.167 78.333 229.959 78.333 C 398.725 78.333,386.985 78.400,390.418 77.416 C 395.092 76.076,397.692 73.676,399.082 69.417 C 400.003 66.592,399.994 66.906,399.997 39.292 L 400.000 13.833 393.250 13.833 L 386.500 13.833 386.500 30.333 L 386.500 46.833 370.511 46.833 C 351.774 46.833,352.033 46.856,350.270 45.092 C 348.772 43.594,348.679 42.516,348.672 26.542 L 348.667 13.833 341.826 13.833 L 334.985 13.833 335.046 28.958 M166.950 14.171 C 154.975 15.073,149.942 19.354,148.551 29.820 C 148.188 32.557,148.135 44.422,148.475 47.250 C 149.819 58.454,154.812 62.589,168.085 63.492 C 171.271 63.708,189.312 63.714,192.500 63.499 C 206.170 62.578,211.291 58.232,212.348 46.658 C 212.683 42.978,212.462 30.844,212.013 28.360 C 210.458 19.747,206.328 16.012,196.656 14.470 C 194.230 14.083,171.190 13.851,166.950 14.171 M240.750 14.174 C 228.210 15.026,223.037 19.967,222.171 31.917 C 220.605 53.510,224.484 61.234,237.826 63.089 C 241.960 63.664,260.123 63.920,266.414 63.492 C 279.371 62.610,284.360 58.762,285.961 48.417 C 286.332 46.014,286.382 32.574,286.029 29.917 C 284.615 19.280,279.520 15.007,267.250 14.165 C 264.561 13.981,243.488 13.988,240.750 14.174 M192.289 26.227 C 197.657 27.181,198.667 29.161,198.667 38.726 C 198.667 48.853,197.438 50.848,190.789 51.512 C 187.091 51.882,169.328 51.626,167.667 51.179 C 162.900 49.896,162.252 48.429,162.251 38.917 C 162.249 27.804,163.092 26.600,171.333 25.936 C 173.854 25.733,190.837 25.969,192.289 26.227 M266.034 26.221 C 271.456 27.122,272.389 28.947,272.399 38.667 C 272.410 48.336,271.681 49.943,266.707 51.212 C 264.434 51.792,243.900 51.792,241.626 51.212 C 236.776 49.975,236.000 48.275,236.000 38.885 C 236.000 28.229,237.023 26.641,244.298 26.006 C 247.276 25.746,264.182 25.913,266.034 26.221 " stroke="none" fill="#ffffff" fill-rule="evenodd"></path><path id="path4" d="M299.167 6.917 L 299.167 13.833 295.667 13.833 L 292.167 13.833 292.167 19.583 L 292.167 25.333 295.667 25.333 L 299.167 25.333 299.167 44.500 L 299.167 63.667 306.250 63.667 L 313.333 63.667 313.333 44.500 L 313.333 25.333 321.083 25.333 L 328.833 25.333 328.833 19.583 L 328.833 13.833 321.083 13.833 L 313.333 13.833 313.333 6.917 L 313.333 0.000 306.250 0.000 L 299.167 0.000 299.167 6.917 M93.667 0.422 C 93.529 0.449,92.629 0.561,91.667 0.669 C 82.649 1.689,77.627 5.631,76.067 12.917 C 75.264 16.667,75.278 16.191,75.213 40.125 L 75.152 62.667 82.243 62.667 L 89.333 62.667 89.333 51.000 L 89.333 39.333 115.500 39.333 L 141.667 39.333 141.667 33.333 L 141.667 27.333 115.481 27.333 L 89.295 27.333 89.377 23.375 C 89.521 16.349,90.700 14.208,95.113 12.956 L 96.417 12.586 118.042 12.539 L 139.667 12.492 139.667 6.412 L 139.667 0.333 116.792 0.353 C 104.210 0.363,93.804 0.394,93.667 0.422 M0.003 27.375 C 0.007 44.804,0.044 45.239,1.863 48.993 C 3.837 53.071,7.373 55.371,13.455 56.534 C 15.403 56.907,15.541 56.910,33.480 56.960 L 51.542 57.011 51.453 59.797 C 51.327 63.754,50.974 64.639,49.184 65.478 L 48.250 65.917 37.792 65.966 L 27.333 66.016 27.333 71.758 L 27.333 77.500 37.875 77.499 C 43.673 77.498,49.279 77.422,50.333 77.331 C 58.246 76.644,62.249 74.045,64.061 68.417 C 65.010 65.469,65.000 65.794,65.000 38.270 L 65.000 13.000 58.250 13.000 L 51.500 13.000 51.500 29.500 L 51.500 46.000 36.208 45.997 C 17.760 45.993,17.220 45.951,15.466 44.366 C 13.679 42.752,13.667 42.631,13.667 26.507 L 13.667 13.000 6.833 13.000 L 0.000 13.000 0.003 27.375 M335.046 28.958 C 335.112 45.478,335.098 45.218,336.132 48.167 C 337.789 52.892,341.268 55.795,346.833 57.097 C 350.210 57.887,350.248 57.889,368.896 57.955 L 386.542 58.018 386.461 60.884 C 386.348 64.962,385.871 65.937,383.651 66.632 C 382.808 66.896,372.872 66.917,228.958 66.958 L 75.167 67.002 75.167 72.667 L 75.167 78.333 229.959 78.333 C 398.725 78.333,386.985 78.400,390.418 77.416 C 395.092 76.076,397.692 73.676,399.082 69.417 C 400.003 66.592,399.994 66.906,399.997 39.292 L 400.000 13.833 393.250 13.833 L 386.500 13.833 386.500 30.333 L 386.500 46.833 370.511 46.833 C 351.774 46.833,352.033 46.856,350.270 45.092 C 348.772 43.594,348.679 42.516,348.672 26.542 L 348.667 13.833 341.826 13.833 L 334.985 13.833 335.046 28.958 M166.950 14.171 C 154.975 15.073,149.942 19.354,148.551 29.820 C 148.188 32.557,148.135 44.422,148.475 47.250 C 149.819 58.454,154.812 62.589,168.085 63.492 C 171.271 63.708,189.312 63.714,192.500 63.499 C 206.170 62.578,211.291 58.232,212.348 46.658 C 212.683 42.978,212.462 30.844,212.013 28.360 C 210.458 19.747,206.328 16.012,196.656 14.470 C 194.230 14.083,171.190 13.851,166.950 14.171 M240.750 14.174 C 228.210 15.026,223.037 19.967,222.171 31.917 C 220.605 53.510,224.484 61.234,237.826 63.089 C 241.960 63.664,260.123 63.920,266.414 63.492 C 279.371 62.610,284.360 58.762,285.961 48.417 C 286.332 46.014,286.382 32.574,286.029 29.917 C 284.615 19.280,279.520 15.007,267.250 14.165 C 264.561 13.981,243.488 13.988,240.750 14.174 M192.289 26.227 C 197.657 27.181,198.667 29.161,198.667 38.726 C 198.667 48.853,197.438 50.848,190.789 51.512 C 187.091 51.882,169.328 51.626,167.667 51.179 C 162.900 49.896,162.252 48.429,162.251 38.917 C 162.249 27.804,163.092 26.600,171.333 25.936 C 173.854 25.733,190.837 25.969,192.289 26.227 M266.034 26.221 C 271.456 27.122,272.389 28.947,272.399 38.667 C 272.410 48.336,271.681 49.943,266.707 51.212 C 264.434 51.792,243.900 51.792,241.626 51.212 C 236.776 49.975,236.000 48.275,236.000 38.885 C 236.000 28.229,237.023 26.641,244.298 26.006 C 247.276 25.746,264.182 25.913,266.034 26.221 " stroke="none" fill="#ffffff" fill-rule="evenodd"></path></g></svg>